<?xml version="1.0" standalone="no"?>
<!DOCTYPE svg PUBLIC "-//W3C//DTD SVG 20010904//EN"
 "http://www.w3.org/TR/2001/REC-SVG-20010904/DTD/svg10.dtd">
<svg version="1.0" xmlns="http://www.w3.org/2000/svg"
 width="594.000000pt" height="417.000000pt" viewBox="0 0 594.000000 417.000000"
 preserveAspectRatio="xMidYMid meet">

<g transform="translate(0.000000,417.000000) scale(0.100000,-0.100000)"
fill="#000000" stroke="none">
<path d="M1330 2728 c0 -7 -3 -148 -6 -313 l-5 -300 -24 -22 c-14 -12 -25 -27
-25 -34 0 -17 89 -3 120 20 46 33 51 70 48 375 l-3 281 -52 3 c-38 2 -53 -1
-53 -10z"/>
<path d="M1665 2725 c-38 -10 -60 -24 -92 -59 -103 -115 -98 -301 13 -391 117
-96 245 -101 342 -12 80 74 109 183 78 291 -21 73 -100 158 -161 175 -52 14
-118 13 -180 -4z m141 -30 c27 -11 41 -27 62 -72 23 -51 27 -71 27 -158 0 -87
-3 -107 -26 -156 -19 -41 -35 -59 -57 -68 -68 -28 -150 20 -174 103 -17 58
-13 196 8 259 20 59 64 107 100 107 14 0 40 -7 60 -15z"/>
<path d="M2085 2732 c-3 -3 -5 -98 -5 -212 0 -198 1 -208 23 -240 39 -59 77
-74 183 -73 105 1 153 18 188 66 18 25 21 46 24 155 3 147 -8 303 -23 302 -6
0 -12 -80 -15 -210 l-5 -210 -32 -31 c-64 -65 -173 -44 -215 41 -15 30 -18 64
-18 218 0 140 -3 184 -13 188 -19 7 -86 11 -92 6z"/>
<path d="M2576 2732 c-2 -4 -6 -122 -7 -262 l-3 -255 57 -3 56 -3 3 108 c4
147 14 147 104 4 38 -61 77 -114 87 -117 25 -8 97 5 97 18 0 6 -29 57 -65 114
-36 57 -65 106 -65 110 0 3 23 27 50 53 47 45 50 50 50 98 0 60 -31 106 -87
129 -35 15 -268 20 -277 6z m210 -45 c23 -20 27 -31 26 -79 -1 -87 -37 -137
-99 -138 l-33 0 0 104 c0 57 3 111 6 120 9 25 68 20 100 -7z"/>
<path d="M3035 2727 c-3 -7 -4 -127 -3 -267 3 -240 4 -255 22 -258 10 -2 22 2
27 10 5 7 9 98 9 202 l0 189 21 -19 c12 -10 78 -99 147 -197 174 -247 168
-250 163 88 -2 143 -5 262 -7 264 -2 2 -10 1 -19 -2 -12 -5 -15 -29 -15 -147
0 -77 -3 -140 -7 -139 -5 0 -32 33 -61 73 -29 41 -84 106 -120 145 -63 67 -70
71 -110 71 -25 0 -45 -5 -47 -13z"/>
<path d="M3504 2729 c-3 -6 -7 -127 -8 -268 l-1 -256 164 -3 c107 -2 168 1
175 8 20 20 -13 27 -108 24 -50 -2 -97 1 -104 5 -9 6 -12 36 -10 112 l3 104
69 5 c90 7 98 26 12 32 -35 3 -68 8 -73 11 -6 4 -9 50 -9 104 l1 98 113 3 c90
2 112 5 112 17 0 13 -27 15 -164 15 -110 0 -167 -4 -172 -11z"/>
<path d="M3864 2724 c3 -9 33 -59 65 -113 93 -153 91 -146 91 -274 0 -130 5
-140 67 -135 l38 3 5 150 c5 148 6 151 38 207 18 32 54 83 78 113 38 47 43 56
28 62 -25 9 -44 -7 -105 -93 -31 -43 -63 -79 -70 -79 -7 0 -33 39 -57 88 l-45
87 -69 0 c-60 0 -69 -2 -64 -16z"/>
<path d="M3422 1913 c-35 -7 -90 -68 -102 -115 -15 -52 -5 -119 21 -152 11
-14 41 -38 65 -52 37 -22 54 -26 95 -22 62 6 97 31 127 88 37 74 25 152 -33
213 -42 44 -92 55 -173 40z m117 -39 c32 -41 46 -124 32 -187 -17 -77 -34 -97
-82 -97 -53 0 -85 32 -94 94 -13 84 13 195 47 209 35 14 77 6 97 -19z"/>
<path d="M3697 1913 c-4 -3 -7 -82 -7 -175 l0 -169 33 3 32 3 5 85 5 85 50 6
c36 4 42 7 20 9 -16 1 -34 3 -40 5 -5 1 -16 3 -23 3 -9 2 -12 20 -10 70 l3 67
75 6 c74 5 74 5 -31 7 -58 1 -109 -1 -112 -5z"/>
<path d="M2074 1332 c-39 -3 -42 -6 -47 -35 -3 -18 -6 -137 -6 -264 l0 -233
176 0 c135 0 174 3 171 13 -3 8 -38 13 -117 15 l-112 3 3 112 3 112 73 3 c96
4 94 25 -4 32 l-69 5 0 105 0 105 109 3 c110 2 126 5 112 20 -8 7 -211 10
-292 4z"/>
<path d="M2823 1333 c-18 -3 -23 -12 -24 -36 0 -18 -2 -137 -4 -264 l-2 -233
173 0 c148 0 174 2 174 15 0 12 -19 15 -115 15 l-116 0 3 113 3 112 73 3 c96
4 95 26 -1 30 -37 2 -68 6 -68 10 -1 4 -3 50 -4 104 -3 112 -13 104 125 107
99 2 114 6 90 21 -15 9 -263 12 -307 3z"/>
<path d="M3327 1319 c-8 -13 -38 -103 -66 -199 -27 -96 -59 -202 -71 -234 -26
-76 -26 -88 2 -84 18 2 26 17 45 79 l23 76 98 6 c114 8 111 9 143 -95 l20 -68
59 0 c34 0 60 4 60 10 0 6 -24 72 -53 148 -30 75 -71 183 -92 240 -22 57 -44
110 -49 117 -6 8 -32 17 -58 20 -41 6 -48 5 -61 -16z m80 -207 c25 -57 43
-105 41 -107 -2 -2 -41 -7 -86 -11 -98 -8 -96 -14 -51 131 35 112 41 125 47
105 3 -8 25 -61 49 -118z"/>
<path d="M4357 1329 c-90 -21 -172 -89 -198 -165 -21 -62 -17 -171 9 -221 31
-60 76 -108 120 -129 86 -41 292 -9 292 45 0 27 -12 26 -66 -5 -34 -20 -57
-26 -100 -25 -73 0 -99 19 -132 89 -22 48 -25 69 -24 146 3 161 66 244 182
238 30 -1 70 -7 88 -13 38 -12 51 -6 33 15 -7 8 -35 17 -64 21 -29 3 -63 8
-77 10 -14 2 -42 -1 -63 -6z"/>
<path d="M4647 1329 c-15 -9 -17 -33 -17 -262 0 -184 3 -256 12 -265 7 -7 28
-12 48 -12 55 0 60 11 60 136 l0 113 43 6 c23 4 69 5 102 3 l60 -3 3 -109 c1
-61 8 -116 14 -123 6 -7 30 -13 54 -13 37 0 44 3 49 23 3 12 5 127 3 255 -3
254 -3 252 -63 252 -51 0 -54 -7 -57 -130 l-3 -115 -102 -3 -103 -3 0 121 c0
88 -3 122 -12 124 -37 12 -75 13 -91 5z"/>
<path d="M1558 1105 c-1 -124 -2 -242 -2 -262 l-1 -38 58 -3 57 -3 0 110 c0
161 11 159 122 -18 l58 -91 55 0 c42 0 55 4 55 15 0 8 -29 60 -65 117 -36 56
-65 108 -65 115 0 7 13 19 29 28 50 25 71 61 71 121 0 46 -4 57 -32 84 -45 45
-64 50 -209 50 l-129 0 -2 -225z m197 191 c91 -38 54 -225 -46 -229 l-34 -2
-3 110 c-2 95 0 111 15 122 21 16 26 16 68 -1z"/>
<path d="M2470 1317 c-68 -34 -93 -149 -47 -218 20 -30 45 -49 152 -116 43
-26 62 -65 49 -100 -13 -39 -49 -49 -134 -37 -52 7 -74 7 -81 -2 -21 -26 21
-39 127 -39 114 0 137 9 182 76 19 27 23 43 19 81 -6 64 -25 89 -110 147 -111
75 -130 96 -123 133 10 52 24 61 86 54 30 -3 70 -8 89 -12 26 -5 33 -4 29 7
-3 8 -15 20 -29 26 -31 16 -177 16 -209 0z"/>
<path d="M3692 1068 l3 -263 55 0 55 0 5 110 c4 78 9 110 17 110 7 0 45 -49
85 -110 73 -110 73 -110 117 -113 67 -5 75 1 55 40 -9 18 -41 70 -71 116 -29
45 -53 86 -53 90 0 4 18 18 39 31 74 45 93 125 45 188 -42 56 -67 63 -219 63
l-135 0 2 -262z m226 205 c27 -29 30 -98 7 -147 -17 -35 -61 -66 -94 -66 -20
0 -21 5 -21 119 0 106 2 120 18 124 30 7 66 -4 90 -30z"/>
</g>
</svg>
