<?xml version="1.0" encoding="UTF-8"?><svg id="_레이어_1" xmlns="http://www.w3.org/2000/svg" xmlns:xlink="http://www.w3.org/1999/xlink" viewBox="0 0 152.26 60.09"><defs><style>.cls-1{clip-path:url(#clippath);}.cls-2,.cls-3{fill:#231815;}.cls-3,.cls-4{stroke-width:0px;}.cls-4{fill:#ccef3a;}</style><clipPath id="clippath"><ellipse class="cls-3" cx="76.13" cy="30.05" rx="77.1" ry="27.44" transform="translate(-4 13.36) rotate(-9.77)"/></clipPath></defs><ellipse class="cls-2" cx="76.13" cy="30.05" rx="77.1" ry="27.44" transform="translate(-4 13.36) rotate(-9.77)"/><g class="cls-1"><path class="cls-4" d="M32.71,22.71l3.76-8.84-.14,9.61c-.03,2.09,2.35,3.3,4.02,2.05l7.68-5.78-4.93,8.25c-1.07,1.79.39,4.04,2.46,3.78l9.54-1.16-8.39,4.68c-1.83,1.02-1.68,3.69.24,4.51l8.84,3.76-9.61-.14c-2.09-.03-3.3,2.35-2.05,4.02l5.78,7.68-8.25-4.93c-1.79-1.07-4.04.39-3.78,2.46l1.16,9.54-4.68-8.39c-1.02-1.83-3.69-1.68-4.51.24l-3.76,8.84.14-9.61c.03-2.09-2.35-3.3-4.02-2.05l-7.68,5.78,4.93-8.25c1.07-1.79-.39-4.04-2.46-3.78l-9.54,1.16,8.39-4.68c1.83-1.02,1.68-3.69-.24-4.51l-8.84-3.76,9.61.14c2.09.03,3.3-2.35,2.05-4.02l-5.78-7.68,8.25,4.93c1.79,1.07,4.04-.39,3.78-2.46l-1.16-9.54,4.68,8.39c1.02,1.83,3.69,1.68,4.51-.24Z"/><path class="cls-4" d="M66.98,28.3v-5.23h-2.62v-5.23h-4.67v10.47h-3.18V4.17h11.04v2.62h2.62v8.42h-2.62v7.28h2.62v5.8h-3.18ZM66.98,14.64v-7.29h-7.29v7.29h7.29Z"/><path class="cls-4" d="M56.79,28.01V4.46h10.47v2.62h-7.85v7.85h7.85v7.85h-2.62v-5.23h-5.23v10.47h-2.62ZM67.26,14.93v-7.85h2.62v7.85h-2.62ZM67.26,22.78h2.62v5.23h-2.62v-5.23Z"/><path class="cls-4" d="M74.48,28.61c-.63,0-1.15-.14-1.54-.4-.42-.29-.63-.77-.63-1.42,0-.32.06-.68.17-1.06.11-.36.21-.69.32-1l2.56-7.29h-2.31l.27-.93h4.77l-3.22,9.25c-.09.26-.17.52-.26.79-.08.24-.12.47-.12.69,0,.14.04.26.12.36.02.03.1.12.33.12.22,0,.44-.08.66-.24.25-.18.49-.39.7-.63.21-.24.4-.48.54-.73.15-.25.26-.45.32-.6l.11-.25.85.35-.47.92c-.16.31-.38.62-.66.92-.28.31-.63.58-1.04.8-.42.23-.93.35-1.5.35ZM78.62,12.12c-.42,0-.79-.15-1.08-.44-.29-.29-.44-.65-.44-1.08s.15-.79.44-1.08c.29-.29.65-.44,1.08-.44s.79.15,1.08.44c.29.29.44.65.44,1.08s-.15.79-.44,1.08c-.29.29-.65.44-1.08.44Z"/><path class="cls-4" d="M73.43,17.15l.1-.37h4.16l-3.09,8.87c-.09.26-.17.53-.26.8-.09.27-.13.53-.13.77,0,.21.06.39.18.54.12.15.3.22.55.22.28,0,.55-.1.82-.29.27-.19.52-.41.75-.67.23-.25.42-.51.58-.77.16-.26.27-.47.34-.63l.31.13c-.07.14-.18.35-.33.64-.15.29-.35.58-.62.86-.26.29-.58.54-.97.75-.38.21-.84.31-1.36.31-.58,0-1.03-.12-1.37-.35-.34-.24-.51-.63-.51-1.19,0-.3.05-.62.16-.98.1-.36.21-.68.31-.98l2.7-7.67h-2.33ZM77.74,9.73c.24-.24.53-.35.88-.35s.64.12.88.35.35.53.35.88-.12.64-.35.88-.53.35-.88.35-.64-.12-.88-.35-.35-.53-.35-.88.12-.64.35-.88Z"/><polygon class="cls-4" points="80.93 28.3 80.93 25.11 88.78 25.11 88.78 20.44 83.54 20.44 83.54 17.83 80.93 17.83 80.93 14.64 83.54 14.64 83.54 12.02 91.96 12.02 91.96 15.21 84.11 15.21 84.11 17.26 89.34 17.26 89.34 19.88 91.96 19.88 91.96 25.68 89.34 25.68 89.34 28.3 80.93 28.3"/><path class="cls-4" d="M81.21,17.54v-2.62h2.62v2.62h-2.62ZM81.21,28.01v-2.62h7.85v2.62h-7.85ZM83.83,14.93v-2.62h7.85v2.62h-7.85ZM83.83,17.54h5.23v2.62h-5.23v-2.62ZM89.06,25.39v-5.23h2.62v5.23h-2.62Z"/><path class="cls-4" d="M96.28,28.61c-.63,0-1.15-.14-1.54-.4-.42-.29-.63-.77-.63-1.42,0-.32.06-.68.17-1.06.11-.36.21-.69.32-1l2.56-7.29h-2.3l.27-.93h4.77l-3.22,9.25c-.09.26-.17.52-.26.79-.08.24-.12.47-.12.69,0,.14.04.26.12.36.02.03.1.12.33.12.22,0,.44-.08.66-.24.25-.18.49-.39.7-.63.21-.24.4-.48.54-.73.15-.25.26-.45.32-.6l.11-.25.85.35-.47.92c-.16.31-.38.62-.66.92-.28.31-.63.58-1.04.8-.42.23-.93.35-1.5.35ZM100.42,12.12c-.42,0-.79-.15-1.08-.44-.29-.29-.44-.65-.44-1.08s.15-.79.44-1.08c.29-.29.65-.44,1.08-.44s.79.15,1.08.44c.29.29.44.65.44,1.08s-.15.79-.44,1.08c-.29.29-.65.44-1.08.44Z"/><path class="cls-4" d="M95.24,17.15l.1-.37h4.16l-3.09,8.87c-.09.26-.17.53-.26.8-.09.27-.13.53-.13.77,0,.21.06.39.18.54.12.15.3.22.55.22.28,0,.55-.1.82-.29.27-.19.52-.41.75-.67.23-.25.42-.51.58-.77.16-.26.27-.47.34-.63l.31.13c-.07.14-.18.35-.33.64-.15.29-.35.58-.62.86-.26.29-.58.54-.97.75-.38.21-.84.31-1.36.31-.58,0-1.03-.12-1.37-.35-.34-.24-.51-.63-.51-1.19,0-.3.05-.62.16-.98.1-.36.21-.68.31-.98l2.7-7.67h-2.33ZM99.54,9.73c.24-.24.53-.35.88-.35s.64.12.88.35.35.53.35.88-.12.64-.35.88-.53.35-.88.35-.64-.12-.88-.35-.35-.53-.35-.88.12-.64.35-.88Z"/><path class="cls-4" d="M111.33,28.3l1.69-8.09c.31-1.45.21-2.52-.32-3.17-.44-.55-1.21-.83-2.29-.83-2.73,0-4.84,2.24-5.64,5.98l-1.28,6.1h-2.03l2.17-10.14c.23-1.1.5-2.4.65-3.29l.04-.23h1.96l-.04.32c-.07.5-.16,1-.25,1.48,1.22-1.46,2.75-2.17,4.67-2.17,1.7,0,2.95.48,3.72,1.44.86,1.06,1.07,2.67.63,4.77l-1.67,7.83h-2.02Z"/><path class="cls-4" d="M103.92,18.22c.24-1.1.5-2.41.65-3.3h1.39c-.13.93-.31,1.85-.52,2.8.86-1.45,2.35-3.17,5.22-3.17s4.99,1.52,4.08,5.86l-1.62,7.6h-1.45l1.62-7.75c.54-2.52-.05-4.34-2.88-4.34-3.19,0-5.19,2.8-5.92,6.21l-1.23,5.88h-1.45l2.09-9.8Z"/><path class="cls-4" d="M117.31,30.91v-3.18h10.47v-2.05h-7.85v-2.62h-2.62v-8.42h2.62v-2.62h11.04v16.27h-2.62v2.62h-11.04ZM127.78,22.49v-7.28h-7.29v7.28h7.29Z"/><path class="cls-4" d="M117.59,22.78v-7.85h2.62v7.85h-2.62ZM117.59,30.63v-2.62h10.47v2.62h-10.47ZM120.21,22.78h7.85v-7.85h-7.85v-2.62h10.47v15.7h-2.62v-2.62h-7.85v-2.62Z"/><path class="cls-4" d="M62.35,53.58c-.7,0-1.32-.06-1.85-.18-.53-.12-1.02-.25-1.45-.41-.42-.15-.81-.28-1.17-.39-.34-.1-.67-.16-1-.16-.18,0-.34.06-.49.2-.16.14-.25.28-.27.44l-.05.29-1-.21,2.15-6.09h.96l-.13.37c-.09.28-.18.54-.25.8-.07.23-.1.49-.1.78,0,.58.14,1.1.41,1.55.28.45.65.83,1.1,1.13.46.3.99.54,1.56.7s1.17.24,1.76.24c.79,0,1.51-.11,2.14-.34.62-.22,1.15-.53,1.57-.93.42-.39.74-.86.96-1.4.22-.54.33-1.13.33-1.77s-.14-1.22-.43-1.71c-.29-.51-.71-1.01-1.23-1.5l-2-1.83c-.92-.82-1.65-1.65-2.18-2.47-.55-.84-.82-1.81-.82-2.88,0-.84.19-1.61.57-2.31.37-.69.88-1.29,1.51-1.78.63-.49,1.35-.87,2.16-1.15.81-.27,1.65-.41,2.51-.41.6,0,1.14.06,1.6.16.45.11.87.23,1.25.36.37.13.7.25,1.01.35.29.09.57.14.86.14.21,0,.37-.04.46-.13.12-.1.21-.25.29-.43l.09-.21.97.19-2.13,5.89h-.9l.24-.99c.06-.25.09-.58.09-.96,0-.63-.1-1.17-.31-1.6-.21-.43-.48-.78-.82-1.04-.34-.27-.75-.46-1.21-.59-.47-.12-.98-.19-1.5-.19-.64,0-1.24.09-1.77.27-.53.18-.99.42-1.37.72-.37.29-.66.65-.87,1.06-.21.41-.31.87-.31,1.37,0,.74.21,1.39.62,1.93.44.58.94,1.12,1.49,1.61l2.51,2.26c.69.62,1.29,1.32,1.79,2.09.51.8.76,1.69.76,2.67,0,.75-.17,1.52-.52,2.29-.34.77-.86,1.47-1.54,2.08-.67.61-1.52,1.12-2.53,1.51-1.01.39-2.19.58-3.52.58Z"/><path class="cls-4" d="M57.78,47.37c-.09.28-.18.55-.25.8-.08.25-.11.54-.11.86,0,.64.15,1.21.45,1.69.3.49.7.89,1.19,1.21.49.32,1.04.56,1.64.73.6.17,1.21.25,1.84.25.83,0,1.57-.12,2.23-.35.66-.24,1.21-.56,1.67-.99.45-.42.8-.92,1.03-1.5.24-.57.35-1.2.35-1.88s-.16-1.31-.47-1.85c-.31-.54-.74-1.06-1.29-1.57l-2.01-1.84c-.9-.81-1.61-1.61-2.13-2.42-.52-.8-.78-1.71-.78-2.73,0-.79.18-1.52.54-2.17.36-.66.84-1.22,1.44-1.69.6-.47,1.29-.84,2.08-1.1.78-.26,1.59-.4,2.42-.4.58,0,1.1.05,1.54.16.44.1.85.22,1.21.35.37.13.71.25,1.02.35.31.1.63.16.95.16.28,0,.5-.07.65-.2.15-.13.27-.31.37-.54l.42.08-1.95,5.4h-.34c.04-.15.09-.36.16-.64.07-.27.1-.62.1-1.03,0-.68-.11-1.25-.34-1.72-.23-.47-.53-.85-.9-1.14-.38-.29-.81-.5-1.31-.64-.5-.13-1.02-.2-1.57-.2-.68,0-1.3.09-1.86.28-.56.19-1.05.44-1.45.76-.41.32-.72.71-.95,1.16-.23.45-.34.95-.34,1.5,0,.81.23,1.51.68,2.1.45.59.96,1.14,1.53,1.65l2.51,2.26c.68.6,1.26,1.28,1.74,2.03.48.75.72,1.59.72,2.51,0,.72-.16,1.44-.49,2.17-.33.73-.82,1.4-1.47,1.99-.65.59-1.46,1.08-2.44,1.45-.98.38-2.12.56-3.42.56-.68,0-1.28-.06-1.79-.17-.52-.11-.99-.24-1.41-.4-.42-.15-.82-.28-1.19-.4-.37-.11-.73-.17-1.09-.17-.24,0-.47.09-.68.27-.21.18-.33.38-.37.61l-.4-.08,1.98-5.59h.37Z"/><polygon class="cls-4" points="79.87 50.93 79.87 48.45 77.4 48.45 77.4 41.02 74.92 41.02 74.92 37.98 77.4 37.98 77.4 35.5 80.44 35.5 80.44 37.98 82.92 37.98 82.92 41.02 80.44 41.02 80.44 47.88 82.92 47.88 82.92 50.93 79.87 50.93"/><path class="cls-4" d="M75.2,40.74v-2.48h2.48v-2.48h2.48v2.48h2.48v2.48h-2.48v7.43h-2.48v-7.43h-2.48ZM80.16,48.17h2.48v2.48h-2.48v-2.48Z"/><path class="cls-4" d="M89.13,50.46c-3.57,0-4.84-2.17-4.84-4.03,0-4.25,4.92-4.69,7.02-4.88l.21-.02c1.04-.1,2.92-.11,4.07-.11l.06-.27c.21-1,.1-1.77-.33-2.28-.5-.61-1.47-.93-2.88-.93-2.44,0-3.68.71-4.17,2.39l-.06.21h-2.04l.08-.34c.6-2.74,2.74-4.13,6.37-4.13,2.06,0,3.54.54,4.4,1.6.74.91.96,2.18.65,3.65l-1.2,5.71c-.29,1.4-.49,2.33-.55,2.81l-.03.25h-2.01l.03-.31c.03-.27.09-.65.18-1.06-1.14,1.18-2.75,1.73-4.96,1.73ZM95.25,43.25c-1.53,0-2.72.03-3.8.13-2.6.23-5.01.74-5.01,2.94,0,1.38,1.1,2.2,2.93,2.2,3.28,0,4.98-1.5,5.86-5.18l.02-.09Z"/><path class="cls-4" d="M96.45,45.73c-.44,2.14-.73,3.45-.81,4.07h-1.44c.05-.52.26-1.43.44-2.26-.94,1.56-2.48,2.63-5.51,2.63-3.38,0-4.55-2.02-4.55-3.75,0-4.13,4.95-4.43,6.97-4.62,1.1-.1,3.18-.11,4.27-.11l.1-.49c.36-1.77-.06-3.55-3.48-3.55-2.7,0-3.94.88-4.44,2.59h-1.47c.45-2.04,1.94-3.91,6.09-3.91s5.34,2.21,4.77,4.91l-.94,4.48ZM95.6,42.96c-1.84,0-3.06.03-4.18.13-2.69.23-5.27.78-5.27,3.22,0,1.5,1.17,2.49,3.22,2.49,3.76,0,5.33-2.02,6.13-5.4l.1-.44Z"/><path class="cls-4" d="M98.7,48.42l2.96-8.44c.16-.45.3-.91.44-1.37l.31-1.05h-2.27l.27-.93h4.6l-.08.35c-.09.37-.22.84-.38,1.4,0,.03-.02.05-.02.08.19-.23.39-.46.61-.69.35-.35.74-.66,1.16-.91.44-.26.92-.39,1.43-.39.72,0,1.29.22,1.69.64.39.42.58.89.56,1.38,0,.31-.06.59-.18.81-.12.23-.27.4-.46.53-.18.11-.36.19-.55.24-.17.04-.35.06-.51.06-.31,0-.57-.08-.78-.24-.16-.12-.34-.36-.34-.77,0-.26.06-.46.18-.61.08-.1.17-.2.27-.3.08-.08.15-.16.22-.26.04-.05.06-.14.06-.25,0-.08-.03-.14-.1-.19-.09-.07-.21-.1-.35-.1-.27,0-.59.15-.98.45-.42.32-.84.75-1.25,1.26-.42.52-.82,1.12-1.19,1.78-.38.67-.69,1.34-.92,2l-1.95,5.53h-2.43Z"/><path class="cls-4" d="M102.38,38.68c.14-.47.28-.94.42-1.41h-2.28l.1-.37h4.03c-.09.37-.21.83-.38,1.39-.17.56-.34,1.1-.54,1.62l.05.05c.17-.26.39-.58.65-.94.26-.37.56-.72.89-1.06.33-.34.7-.63,1.1-.86.4-.24.83-.35,1.28-.35.65,0,1.14.18,1.48.55s.5.76.48,1.18c0,.28-.05.51-.14.69-.1.18-.22.32-.37.42-.15.1-.3.16-.46.2-.16.04-.31.05-.44.05-.24,0-.45-.06-.6-.18-.16-.12-.24-.31-.24-.55,0-.19.04-.34.12-.43.08-.1.16-.19.25-.27.09-.09.17-.18.25-.29.08-.1.12-.24.12-.42s-.07-.31-.21-.42c-.14-.1-.31-.16-.52-.16-.33,0-.72.17-1.15.51-.44.34-.87.78-1.3,1.31-.43.53-.83,1.14-1.22,1.82-.38.68-.7,1.36-.94,2.04l-1.88,5.34h-1.83l2.83-8.06c.16-.45.31-.92.44-1.39Z"/><polygon class="cls-4" points="111.04 48.42 111.04 45.37 118.48 45.37 118.48 43.46 113.52 43.46 113.52 40.98 111.04 40.98 111.04 37.94 113.52 37.94 113.52 35.46 121.52 35.46 121.52 38.51 114.09 38.51 114.09 40.42 119.04 40.42 119.04 42.89 121.52 42.89 121.52 45.94 119.04 45.94 119.04 48.42 111.04 48.42"/><path class="cls-4" d="M111.33,40.7v-2.48h2.48v2.48h-2.48ZM111.33,48.13v-2.48h7.43v2.48h-7.43ZM113.81,38.22v-2.48h7.43v2.48h-7.43ZM113.81,43.18v-2.48h4.95v2.48h-4.95ZM118.76,43.18h2.48v2.48h-2.48v-2.48Z"/></g></svg>