<?xml version="1.0" encoding="UTF-8"?><svg id="_레이어_1" xmlns="http://www.w3.org/2000/svg" xmlns:xlink="http://www.w3.org/1999/xlink" viewBox="0 0 152.26 60.09"><defs><style>.cls-1{clip-path:url(#clippath);}.cls-2,.cls-3{fill:#fff;}.cls-4{fill:#231815;}.cls-4,.cls-5,.cls-3{stroke-width:0px;}.cls-5{fill:#ccef3a;}</style><clipPath id="clippath"><rect class="cls-3" x="-1520.26" y="-63.08" width="1207.56" height="1700.79"/></clipPath></defs><rect class="cls-2" x="-1520.26" y="-63.08" width="1207.56" height="1700.79"/><g class="cls-1"><path class="cls-5" d="M-1495.21-333.16c-75.32,85.31-144.57,177-204.55,273.75-27.18,43.83-52.46,88.85-75.73,134.87-15.91,31.47-31.81,63.55-43.07,96.98-14.7,43.64-15.91,91.32-5.45,135.98,16.3,69.59,73.27,122.34,139.63,143.65,21.06,6.76,44.91,9.97,67.16,7.96,17.29-1.57,35.66-3.4,52.89-7.62,18.13-4.43,37.49-14.14,53.33-21.07,32.29-14.12,59.69-38.14,87.08-59.66,19.77-15.53,38.51-32.34,56.5-49.89,37.5-36.57,71.74-76.29,106.24-115.64,37.12-42.35,74.25-84.69,111.37-127.04,84.72-96.63,169.44-193.27,254.16-289.9-82.65-63.77-165.3-127.54-247.95-191.32-118.64,169.93-230.43,344.95-328.23,527.79-102.52,191.67-191.06,392.76-255.02,600.68-33.94,110.34-60.46,222.92-78.28,336.99-7.52,27.98-7.52,55.96,0,83.94,4.88,20.54,14.3,38.44,28.26,53.69,11.13,17.19,25.9,30.74,44.29,40.66,24.62,14.28,51.18,21.47,79.68,21.55,97.28,5.18,182.48-50.43,251.08-113.09,47.91-43.76,92.5-91.2,135.59-139.66,84.63-95.16,165.25-194.15,244.43-293.87,163.06-205.36,318.26-417.25,454.95-641.22,73.57-120.54,141.75-244.36,203.15-371.54,11.54-18.12,17.78-37.69,18.73-58.7,4.7-20.98,3.76-41.97-2.82-62.95-4.88-20.54-14.3-38.44-28.26-53.69-11.13-17.19-25.9-30.74-44.29-40.66-36.64-19.36-81.03-29.06-121.65-15.92-39.82,12.88-71.92,36.61-94.35,72.55-110.57,177.18-221.17,354.47-323.19,536.76-107.43,191.94-206.6,390.23-283.48,596.55-35.67,95.72-64.15,194.24-78.27,295.56-9.53,68.39-19.88,138.83-10.61,207.77,1.49,11.07,2.16,23.02,5.66,33.86,4.09,12.7,11.01,28.82,17.08,40.72,1.24,2.43,2.46,4.68,3.94,6.97,25.85,40.07,63.96,72.34,110.95,84.63,37.31,9.76,68.41,8.15,105.96,1.12,22.09-4.14,43.9-15.08,63.65-24.31,20.85-9.74,40.43-23.41,58.95-36.95,28.51-20.84,56.66-42.61,82.86-66.35,34.6-31.34,66.06-65.98,95.97-101.77,73.46-87.91,142.12-180.24,209.05-273.19,122.88-170.65,237.05-347.35,348.98-525.31,13.95-22.18,27.86-44.37,41.75-66.58-90.88-53.12-181.76-106.24-272.64-159.36-75.46,136-150.35,272.35-221.7,410.57-76.75,148.68-148.92,299.56-213.75,453.83-28.81,68.56-55.06,138.33-74.67,210.13-9.85,36.05-18,72.57-23.91,109.48-4.85,30.27-10.3,60.88-11.98,91.5-.18,3.3-.26,6.62-.1,9.92.81,16.33,3.17,34.1,6.55,50.01,5.86,27.59,18.36,48.22,34.78,69.48,6.47,8.37,11.14,15.78,18.77,22.27s24.52,20.25,33.13,25.45c7.12,4.3,14.36,6.57,22.47,9.99,9.32,3.93,17.2,8.1,26.67,10.34s33.71,5.17,43.34,5.82c1.88.13,3.71.27,5.59.3,15.5.22,33.99-3.44,49.2-6.3,3.52-.66,6.96-1.52,10.36-2.66,18.81-6.31,37.9-14.11,55.23-23.86,24.51-13.8,47.2-34.26,69.02-51.24,13.85-10.78,27.49-21.8,40.92-33.09,53.18-44.73,102.98-93.38,150.12-144.41,103.13-111.65,194.34-234.02,284.15-356.44,10.42-14.2,20.82-28.42,31.21-42.65-90.88-53.12-181.76-106.24-272.64-159.36-91.96,206.31-254.58,368.12-370.85,559.57-35.34,58.19-64.14,118.72-90.25,181.56-20.94,50.39-37.38,102.66-46.47,156.53-4.41,26.14-7.92,52.47-10.69,78.83-1.41,13.41-2.87,27.08-2.61,40.58.7,37.7,8.91,76.98,29.78,109.01,26.11,40.06,63.36,70.69,109.95,83.9,58.48,16.58,118.33,3.11,170.56-25.23,32.62-17.7,59.76-43.94,85.48-70.26,95.08-97.28,184.94-199.59,269.31-306.29-82.65-10.65-165.3-21.3-247.95-31.95.97,1.82,1.85,3.68,2.66,5.58-5.31-12.57-10.61-25.14-15.92-37.71,2.67,6.63,4.46,13.26,5.6,20.31-1.88-13.99-3.76-27.98-5.64-41.97,1.73,13.4.98,26.71-.67,40.08,1.88-13.99,3.76-27.98,5.64-41.97-2.15,16-5.27,31.85-7.56,47.83-2.91,20.32-7,42.88-7.58,64.05-.56,20.21,3.37,40.61,6.42,60.44,9.91,64.34,59.94,127.75,117.36,157.09,17.73,9.06,36.32,17.21,55.4,23.04,13.41,4.09,27.52,5.25,41.34,7.11s27.65,4.28,41.76,3.58c21.39-1.05,42.92-4.16,63.88-8.63,30.46-6.49,59.89-20.31,87.54-34.05,17.78-8.84,34.65-19.35,51.42-29.95,34.31-21.69,61.64-54.72,72.55-94.35,6.58-20.98,7.52-41.97,2.82-62.95-.95-21.01-7.2-40.58-18.73-58.7-21.73-33.71-54.1-63.38-94.35-72.55-40.63-9.25-85.46-6.97-121.65,15.92-21.63,13.67-43.46,27.01-67.02,37.13,12.57-5.31,25.14-10.61,37.71-15.92-15.3,6.29-30.93,10.93-47.34,13.19,13.99-1.88,27.98-3.76,41.97-5.64-9.89,1.11-19.68,1.08-29.57,0,13.99,1.88,27.98,3.76,41.97,5.64-10.87-1.46-21.28-4.16-31.43-8.31,12.57,5.31,25.14,10.61,37.71,15.92-8.02-3.54-15.44-7.84-22.38-13.19,10.65,8.23,21.3,16.46,31.95,24.69-5.2-4.28-9.77-8.9-13.95-14.18l24.69,31.95c-3.44-4.71-6.3-9.57-8.75-14.86l15.92,37.71c-3.17-7.65-5.19-15.41-6.34-23.61,1.88,13.99,3.76,27.98,5.64,41.97-1.49-13.58-.59-27.04,1.16-40.55-1.88,13.99-3.76,27.98-5.64,41.97,4.77-34.14,11.98-67.92,14.5-102.38,1.21-16.58-1.23-31.96-3.45-48.49-1.52-11.32-2.34-23.15-5.81-34.17-5.4-17.19-13.11-34.37-21.19-50.41-14.04-23.72-32.91-42.6-56.64-56.64-18.12-11.54-37.69-17.78-58.7-18.73-20.98-4.7-41.97-3.76-62.95,2.82-26.74,7.5-49.97,21.03-69.66,40.6-47.72,60.35-97.18,119.32-148.38,176.75-25.6,28.71-51.63,57.04-78.07,84.98-24.46,25.83-48.39,54.4-76.16,76.73,10.65-8.23,21.3-16.46,31.95-24.69-9.6,7.41-19.79,13.72-30.93,18.55,12.57-5.31,25.14-10.61,37.71-15.92-6.1,2.43-12.17,4.29-18.65,5.39,13.99-1.88,27.98-3.76,41.97-5.64-4.24.53-8.32.67-12.57.3,13.99,1.88,27.98,3.76,41.97,5.64-3.2-.48-6.16-1.21-9.2-2.33,12.57,5.31,25.14,10.61,37.71,15.92-2.23-1.02-4.17-2.1-6.22-3.44,10.65,8.23,21.3,16.46,31.95,24.69-2.73-2.13-4.99-4.4-7.17-7.09,8.23,10.65,16.46,21.3,24.69,31.95-1.92-2.76-3.37-5.41-4.75-8.48,5.31,12.57,10.61,25.14,15.92,37.71-1.18-3.41-2-6.6-2.66-10.15,1.88,13.99,3.76,27.98,5.64,41.97-2.83-22.8,1.01-47.12,4.04-69.76-1.88,13.99-3.76,27.98-5.64,41.97,8.64-61.56,26.65-121.14,50.74-178.35-5.31,12.57-10.61,25.14-15.92,37.71,85.37-200.34,237.91-358.87,355.25-539.59,33.29-51.27,63.58-104.5,88.48-160.37,11.54-18.12,17.78-37.69,18.73-58.7,4.7-20.98,3.76-41.97-2.82-62.95-4.88-20.54-14.3-38.44-28.26-53.69-11.13-17.19-25.9-30.74-44.29-40.66-36.64-19.36-81.03-29.06-121.65-15.92-12.57,5.31-25.14,10.61-37.71,15.92-23.72,14.04-42.6,32.91-56.64,56.64-43.89,60.05-87.85,120.05-133.3,178.93,8.23-10.65,16.46-21.3,24.69-31.95-80.61,104.27-166.16,205.35-263.73,294.27-27.77,25.31-56.5,49.54-86.17,72.59,10.65-8.23,21.3-16.46,31.95-24.69-14.55,11.24-28.87,22.8-45.69,30.49,12.57-5.31,25.14-10.61,37.71-15.92-6.75,2.83-13.43,4.92-20.69,5.93,13.99-1.88,27.98-3.76,41.97-5.64-3.84.31-7.45.27-11.27-.22,13.99,1.88,27.98,3.76,41.97,5.64-2.78-.59-5.18-1.32-7.81-2.39,12.57,5.31,25.14,10.61,37.71,15.92-1.69-.78-3.28-1.71-4.79-2.8,10.65,8.23,21.3,16.46,31.95,24.69-2.47-1.97-4.39-3.88-6.43-6.3,8.23,10.65,16.46,21.3,24.69,31.95-1.84-2.7-3.18-5.18-4.47-8.18l15.92,37.71c-1.03-3.08-1.75-5.98-2.34-9.18l5.64,41.97c-1.72-14.09.5-28.15,2.33-42.12-1.88,13.99-3.76,27.98-5.64,41.97,16.22-119.74,56.16-234.33,102.85-345.26l-15.92,37.71c93.34-220.85,204.84-433.96,319.41-644.39,32.83-60.31,66.04-120.41,99.35-180.45,20.16-36.33,27.04-81.24,15.92-121.65-4.88-20.54-14.3-38.44-28.26-53.69-11.13-17.19-25.9-30.74-44.29-40.66-36.64-19.36-81.03-29.06-121.65-15.92-39.84,12.89-71.87,36.62-94.35,72.55-123.57,197.51-248.83,394.15-384.7,583.5-38.56,53.74-77.99,106.86-118.4,159.23,8.23-10.65,16.46-21.3,24.69-31.95-62.33,80.64-126.15,162.19-207.19,225.07,10.65-8.23,21.3-16.46,31.95-24.69-23.27,17.82-48.1,35.91-75.07,47.71,12.57-5.31,25.14-10.61,37.71-15.92-7.99,3.24-16.02,5.67-24.57,6.82,13.99-1.88,27.98-3.76,41.97-5.64-4.04.34-7.91.38-11.94.02,13.99,1.88,27.98,3.76,41.97,5.64-3.88-.62-7.37-1.57-11-3.08,12.57,5.31,25.14,10.61,37.71,15.92-1.75-.81-3.41-1.78-4.98-2.89,10.65,8.23,21.3,16.46,31.95,24.69-2.54-1.99-4.56-3.92-6.69-6.35,8.23,10.65,16.46,21.3,24.69,31.95-1.95-2.72-3.44-5.26-4.88-8.28,5.31,12.57,10.61,25.14,15.92,37.71-2.01-5.21-3.21-10.37-4-15.88,1.88,13.99,3.76,27.98,5.64,41.97-2.44-23.37-.75-47.59.6-70.99,1.42-24.7,3.91-49.31,7.19-73.83-1.88,13.99-3.76,27.98-5.64,41.97,18.79-136.25,64.06-266.97,117.19-393.28l-15.92,37.71c57.75-136.8,123.95-269.91,195-400.24,70.89-130.03,146.62-257.36,224.04-383.6,43.9-71.58,88.34-142.81,132.79-214.04-90.88-53.12-181.76-106.24-272.64-159.36-60.27,124.82-127.06,246.42-199.07,364.85-72.07,118.52-149.28,233.86-230.23,346.48-45.89,63.84-93,126.79-141.06,189.01,8.23-10.65,16.46-21.3,24.69-31.95-56.51,73.08-114.34,145.14-173.2,216.34-60.48,73.15-121.35,146.21-186.63,215.16-35.75,37.75-72.38,76.18-113.53,108.13,10.65-8.23,21.3-16.46,31.95-24.69-16.12,12.25-33.11,23.08-51.79,31.02,12.57-5.31,25.14-10.61,37.71-15.92-10.75,4.3-21.66,7.47-33.11,9.27,13.99-1.88,27.98-3.76,41.97-5.64-8.12,1.04-16.09,1.36-24.27.92,50.74,66.61,101.49,133.23,152.23,199.84,25.51-163.31,69-323.38,126.11-478.42,16.14-43.83,33.39-87.24,51.54-130.27l-15.92,37.71c95.6-225.92,216.83-440.14,350.64-645.45,38.14-58.52,77.34-116.34,117.33-173.61,11.54-18.12,17.78-37.69,18.73-58.7,4.7-20.98,3.76-41.97-2.82-62.95l-15.92-37.71c-9.92-18.4-23.47-33.16-40.66-44.29-9.85-9.78-21.46-16.55-34.83-20.3-18.81-9.88-39.09-14.42-60.83-13.6-40.26,1.8-84.13,14.87-111.63,46.24-70.44,80.35-140.88,160.69-211.32,241.04-67.99,77.56-135.17,155.93-204.23,232.54-36.32,40.29-74.34,79.17-117.3,112.45l31.95-24.69c-15.91,12.15-32.03,23.58-50.55,31.41,12.57-5.31,25.14-10.61,37.71-15.92-8.14,3.2-16.33,5.62-24.98,6.96,13.99-1.88,27.98-3.76,41.97-5.64-6.13.7-12.04.77-18.17-.02,13.99,1.88,27.98,3.76,41.97,5.64-3.93-.73-7.58-1.75-11.31-3.18,12.57,5.31,25.14,10.61,37.71,15.92-3.72-1.72-7.03-3.7-10.33-6.15,10.65,8.23,21.3,16.46,31.95,24.69-3.08-2.62-5.75-5.35-8.27-8.52,8.23,10.65,16.46,21.3,24.69,31.95-2.17-3.11-3.94-6.25-5.49-9.71,5.31,12.57,10.61,25.14,15.92,37.71-1.69-4.44-2.81-8.83-3.54-13.51l5.64,41.97c-.76-6.95-.59-13.67.21-20.6-1.88,13.99-3.76,27.98-5.64,41.97,1.97-13.58,6.09-26.53,11.28-39.2-5.31,12.57-10.61,25.14-15.92,37.71,24.96-58.59,57.65-114.98,90.75-169.28,33.9-55.61,70.87-109.29,110.59-160.91-8.23,10.65-16.46,21.3-24.69,31.95,24.45-31.63,49.91-62.45,76.37-92.42,27.87-31.56,46.24-68.53,46.24-111.63.82-21.74-3.71-42.01-13.6-60.83-6.37-19.57-17.25-36.51-32.64-50.81-30.09-27.62-69.59-48.12-111.63-46.24-40.35,1.81-83.99,14.93-111.63,46.24h0Z"/></g><path class="cls-4" d="M29.86,54.04l-2.01,4.72c3.1.46,6.39.81,9.86,1.04l-3.35-6c-1.02-1.83-3.69-1.68-4.51.24Z"/><rect class="cls-4" x="59.69" y="7.36" width="7.29" height="7.29"/><path class="cls-4" d="M95.25,43.25c-1.53,0-2.72.03-3.8.13-2.6.23-5.01.74-5.01,2.94,0,1.38,1.1,2.2,2.93,2.2,3.28,0,4.98-1.5,5.86-5.18l.02-.09Z"/><path class="cls-4" d="M19.47,48.75c1.07-1.79-.39-4.04-2.46-3.78l-9.54,1.16,8.39-4.68c1.83-1.02,1.68-3.69-.24-4.51l-8.84-3.76,9.61.14c2.09.03,3.3-2.35,2.05-4.02l-4.48-5.96C4.29,29.78-.96,36.73.15,43.13c.95,5.49,6.44,9.81,15.09,12.71l4.24-7.09Z"/><path class="cls-4" d="M22.22,51.23l-6.4,4.82c3.08,1,6.56,1.81,10.35,2.45l.08-5.22c.03-2.09-2.35-3.3-4.02-2.05Z"/><path class="cls-4" d="M20.9,26.55c1.79,1.07,4.04-.39,3.78-2.46l-.79-6.43c-3.38,1.67-6.46,3.41-9.21,5.19l6.21,3.71Z"/><path class="cls-4" d="M120.58,45.94h-1.54v.63c.52-.21,1.03-.42,1.54-.63Z"/><path class="cls-4" d="M152.11,16.96c-2.57-14.93-38.68-21.18-80.64-13.95-2.09.36-4.15.75-6.19,1.17h2.26v2.62h2.62v8.42h-2.62v7.28h2.62v5.8h-3.18v-5.23h-2.62v-5.23h-4.67v10.47h-3.18V6.13c-11.97,2.96-22.71,6.76-31.54,11.01l3.24,5.8c1.02,1.83,3.69,1.68,4.51-.24l3.76-8.84-.14,9.61c-.03,2.09,2.35,3.3,4.02,2.05l7.68-5.78-4.93,8.25c-1.07,1.79.39,4.04,2.46,3.78l9.54-1.16-8.39,4.68c-1.83,1.02-1.68,3.69.24,4.51l8.84,3.76-9.61-.14c-2.09-.03-3.3,2.35-2.05,4.02l5.78,7.68-8.25-4.93c-1.79-1.07-4.04.39-3.78,2.46l.88,7.2c12.36.7,26.8-.15,42.03-2.77,12.17-2.1,23.49-5.1,33.38-8.67h-3.13v-3.04h7.43v-1.91h-4.95v-2.48h-2.48v-3.04h2.48v-2.48h8v3.04h-7.43v1.91h4.95v2.48h2.48v2.65c19.93-8.4,32.23-19.11,30.59-28.59ZM99.34,9.53c.29-.29.65-.44,1.08-.44s.79.15,1.08.44c.29.29.44.65.44,1.08s-.15.79-.44,1.08c-.29.29-.65.44-1.08.44s-.79-.15-1.08-.44c-.29-.29-.44-.65-.44-1.08s.15-.79.44-1.08ZM94.29,25.72c.11-.36.21-.69.32-1l2.56-7.29h-2.3l.27-.93h4.77l-3.22,9.25c-.09.26-.17.52-.26.79-.08.24-.12.47-.12.69,0,.14.04.26.12.36.02.03.1.12.33.12.22,0,.44-.08.66-.24.25-.18.49-.39.7-.63.21-.24.4-.48.54-.73.15-.25.26-.45.32-.6l.11-.25.85.35-.47.92c-.16.31-.38.62-.66.92-.28.31-.63.58-1.04.8-.42.23-.93.35-1.5.35-.63,0-1.15-.14-1.54-.4-.42-.29-.63-.77-.63-1.42,0-.32.06-.68.17-1.06ZM80.93,25.11h7.85v-4.67h-5.23v-2.62h-2.62v-3.18h2.62v-2.62h8.42v3.19h-7.85v2.05h5.23v2.62h2.62v5.8h-2.62v2.62h-8.42v-3.19ZM77.54,9.53c.29-.29.65-.44,1.08-.44s.79.15,1.08.44c.29.29.44.65.44,1.08s-.15.79-.44,1.08c-.29.29-.65.44-1.08.44s-.79-.15-1.08-.44c-.29-.29-.44-.65-.44-1.08s.15-.79.44-1.08ZM72.02,38.5h-.9l.24-.99c.06-.25.09-.58.09-.96,0-.63-.1-1.17-.31-1.6-.21-.43-.48-.78-.82-1.04-.34-.27-.75-.46-1.21-.59-.47-.12-.98-.19-1.5-.19-.64,0-1.24.09-1.77.27-.53.18-.99.42-1.37.72-.37.29-.66.65-.87,1.06-.21.41-.31.87-.31,1.37,0,.74.21,1.39.62,1.93.44.58.94,1.12,1.49,1.61l2.51,2.26c.69.62,1.29,1.32,1.79,2.09.51.8.76,1.69.76,2.67,0,.75-.17,1.52-.52,2.29-.34.77-.86,1.47-1.54,2.08-.67.61-1.52,1.12-2.53,1.51-1.01.39-2.19.58-3.52.58-.7,0-1.32-.06-1.85-.18-.53-.12-1.02-.25-1.45-.41-.42-.15-.81-.28-1.17-.39-.34-.1-.67-.16-1-.16-.18,0-.34.06-.49.2-.16.14-.25.28-.27.44l-.05.29-1-.21,2.15-6.09h.96l-.13.37c-.09.28-.18.54-.25.8-.07.23-.1.49-.1.78,0,.58.14,1.1.41,1.55.28.45.65.83,1.1,1.13.46.3.99.54,1.56.7s1.17.24,1.76.24c.79,0,1.51-.11,2.14-.34.62-.22,1.15-.53,1.57-.93.42-.39.74-.86.96-1.4.22-.54.33-1.13.33-1.77s-.14-1.22-.43-1.71c-.29-.51-.71-1.01-1.23-1.5l-2-1.83c-.92-.82-1.65-1.65-2.18-2.47-.55-.84-.82-1.81-.82-2.88,0-.84.19-1.61.57-2.31.37-.69.88-1.29,1.51-1.78.63-.49,1.35-.87,2.16-1.15.81-.27,1.65-.41,2.51-.41.6,0,1.14.06,1.6.16.45.11.87.23,1.25.36.37.13.7.25,1.01.35.29.09.57.14.86.14.21,0,.37-.04.46-.13.12-.1.21-.25.29-.43l.09-.21.97.19-2.13,5.89ZM72.95,28.21c-.42-.29-.63-.77-.63-1.42,0-.32.06-.68.17-1.06.11-.36.21-.69.32-1l2.56-7.29h-2.31l.27-.93h4.77l-3.22,9.25c-.09.26-.17.52-.26.79-.08.24-.12.47-.12.69,0,.14.04.26.12.36.02.03.1.12.33.12.22,0,.44-.08.66-.24.25-.18.49-.39.7-.63.21-.24.4-.48.54-.73.15-.25.26-.45.32-.6l.11-.25.85.35-.47.92c-.16.31-.38.62-.66.92-.28.31-.63.58-1.04.8-.42.23-.93.35-1.5.35-.63,0-1.15-.14-1.54-.4ZM82.92,41.02h-2.48v6.86h2.48v3.04h-3.04v-2.48h-2.48v-7.43h-2.48v-3.04h2.48v-2.48h3.04v2.48h2.48v3.04ZM97.67,41.31l-1.2,5.71c-.29,1.4-.49,2.33-.55,2.81l-.03.25h-2.01l.03-.31c.03-.27.09-.65.18-1.06-1.14,1.18-2.75,1.73-4.96,1.73-3.57,0-4.84-2.17-4.84-4.03,0-4.25,4.92-4.69,7.02-4.88l.21-.02c1.04-.1,2.92-.11,4.07-.11l.06-.27c.21-1,.1-1.77-.33-2.28-.5-.61-1.47-.93-2.88-.93-2.44,0-3.68.71-4.17,2.39l-.06.21h-2.04l.08-.34c.6-2.74,2.74-4.13,6.37-4.13,2.06,0,3.54.54,4.4,1.6.74.91.96,2.18.65,3.65ZM109.79,39.3c-.12.23-.27.4-.46.53-.18.11-.36.19-.55.24-.17.04-.35.06-.51.06-.31,0-.57-.08-.78-.24-.16-.12-.34-.36-.34-.77,0-.26.06-.46.18-.61.08-.1.17-.2.27-.3.08-.08.15-.16.22-.26.04-.05.06-.14.06-.25,0-.08-.03-.14-.1-.19-.09-.07-.21-.1-.35-.1-.27,0-.59.15-.98.45-.42.32-.84.75-1.25,1.26-.42.52-.82,1.12-1.19,1.78-.38.67-.69,1.34-.92,2l-1.95,5.53h-2.43l2.96-8.44c.16-.45.3-.91.44-1.37l.31-1.05h-2.27l.27-.93h4.6l-.08.35c-.09.37-.22.84-.38,1.4,0,.03-.02.05-.02.08.19-.23.39-.46.61-.69.35-.35.74-.66,1.16-.91.44-.26.92-.39,1.43-.39.72,0,1.29.22,1.69.64.39.42.58.89.56,1.38,0,.31-.06.59-.18.81ZM115.03,20.47l-1.67,7.83h-2.02l1.69-8.09c.31-1.45.21-2.52-.32-3.17-.44-.55-1.21-.83-2.29-.83-2.73,0-4.84,2.24-5.64,5.98l-1.28,6.1h-2.03l2.17-10.14c.23-1.1.5-2.4.65-3.29l.04-.23h1.96l-.04.32c-.07.5-.16,1-.25,1.48,1.22-1.46,2.75-2.17,4.67-2.17,1.7,0,2.95.48,3.72,1.44.86,1.06,1.07,2.67.63,4.77ZM130.96,28.3h-2.62v2.62h-11.04v-3.18h10.47v-2.05h-7.85v-2.62h-2.62v-8.42h2.62v-2.62h11.04v16.27Z"/><rect class="cls-4" x="120.49" y="15.21" width="7.29" height="7.28"/></svg>